<svg width="133" height="105" viewBox="0 0 133 105" fill="none" xmlns="http://www.w3.org/2000/svg">
<path d="M48.3584 41.6817C42.2686 39.3902 38.1771 33.4767 38.1771 26.967V20.3271C39.5932 20.0066 40.6536 18.7382 40.6536 17.2266V3.17871C40.6536 1.42591 39.2277 0 37.4749 0H35.4254C34.5757 0 33.8873 0.688652 33.8873 1.53809C33.8873 2.38752 34.5757 3.07617 35.4254 3.07617H37.4749C37.5313 3.07617 37.5774 3.12211 37.5774 3.17871V7.82168H23.4271V3.17871C23.4271 3.12211 23.4732 3.07617 23.5296 3.07617H37.7227C38.5724 3.07617 39.2608 2.38752 39.2608 1.53809C39.2608 0.688652 38.5724 0 37.7227 0H23.5296C21.7768 0 20.3509 1.42591 20.3509 3.17871V17.2266C20.3509 18.7294 21.399 19.9918 22.8028 20.3214V26.9708C22.8028 30.2244 21.8143 33.351 19.944 36.0127C19.4557 36.7077 19.6233 37.6671 20.3183 38.1556C21.0135 38.6441 21.9726 38.4761 22.4609 37.7813C24.6969 34.5989 25.879 30.8608 25.879 26.9708V20.4053H35.1009V26.967C35.1009 34.7505 39.9933 41.821 47.2822 44.5637C54.6244 47.3265 58.7739 55.0378 57.0976 62.6516H41.7621C41.3759 61.8739 40.9489 61.1324 40.4826 60.433C37.8639 56.5054 34.3196 54.3422 30.502 54.3422C26.6845 54.3422 23.1402 56.5054 20.5215 60.433C20.0554 61.1324 19.6282 61.8739 19.242 62.6516H3.89972C2.22301 55.0399 6.37153 47.3271 13.71 44.5629C14.9842 44.083 16.2067 43.4643 17.3436 42.7235C18.0554 42.2598 18.2564 41.307 17.7927 40.5952C17.3291 39.8834 16.3763 39.6822 15.6644 40.1461C14.7139 40.7652 13.6916 41.2826 12.6258 41.6842C3.66225 45.0604 -1.32115 54.6105 1.03437 63.8984L10.2342 100.18C10.9538 103.018 13.5009 105 16.4277 105H44.5532C47.479 105 50.0257 103.019 50.7463 100.182L59.9607 63.9087C62.3216 54.6144 57.3369 45.0602 48.3584 41.6817ZM23.5296 17.3291C23.4732 17.3291 23.4271 17.2832 23.4271 17.2266V10.8979H37.5774V17.2266C37.5774 17.2832 37.5313 17.3291 37.4749 17.3291H23.5296ZM56.3249 65.7275L51.8968 83.1592H42.9439C43.86 80.4462 44.345 77.4393 44.345 74.3371C44.345 71.3106 43.8857 68.3821 43.0161 65.7275H56.3249ZM4.67164 65.7275H17.9882C17.1187 68.3821 16.6593 71.3106 16.6593 74.3371C16.6593 77.4447 17.1435 80.4489 18.0587 83.1592H9.09148L4.67164 65.7275ZM47.7651 99.4245C47.3915 100.896 46.0706 101.924 44.5536 101.924H16.4279C14.9102 101.924 13.5895 100.896 13.216 99.4233L9.87201 86.2353H19.3495C19.7071 86.9359 20.0982 87.6059 20.5219 88.2414C23.1406 92.1691 26.6849 94.3322 30.5025 94.3322C32.172 94.3322 33.8022 93.9145 35.3478 93.0905C36.0974 92.6908 36.381 91.7593 35.9815 91.0098C35.5818 90.2602 34.6504 89.9764 33.9008 90.3761C32.8053 90.9601 31.662 91.2563 30.5027 91.2563C27.7468 91.2563 25.1114 89.5796 23.0817 86.5352C20.9241 83.2988 19.7361 78.967 19.7361 74.3373C19.7361 69.7077 20.9243 65.3756 23.0817 62.1395C25.1112 59.0951 27.7466 57.4184 30.5027 57.4184C33.2585 57.4184 35.894 59.0951 37.9236 62.1395C40.0812 65.3758 41.2693 69.7077 41.2693 74.3373C41.2693 78.8802 40.119 83.1549 38.0301 86.3736C37.5676 87.0862 37.7702 88.0386 38.4829 88.501C39.1953 88.9635 40.1477 88.7607 40.6104 88.0482C40.985 87.4709 41.3335 86.8655 41.6548 86.2355H51.1157L47.7651 99.4245Z" fill="#DB2A4A"/>
<path d="M113.492 48.166V42.247C113.492 39.7269 111.442 37.6767 108.922 37.6767H107.246V28.5234C107.246 27.6822 106.564 27 105.723 27H96.2773C95.4359 27 94.7539 27.6822 94.7539 28.5234V32.3384H87.9207C86.2188 32.3384 84.5563 32.5962 82.9596 33.1043C81.1362 29.4878 77.3895 27 73.0704 27C66.9661 27 62 31.9663 62 38.0704C62 44.1745 66.9661 49.1406 73.0704 49.1406C79.1746 49.1406 84.1407 44.1745 84.1407 38.0704C84.1407 37.3589 84.0706 36.6638 83.9418 35.9892C85.2224 35.5885 86.5557 35.3853 87.9208 35.3853H94.7539V37.6767H93.0781C90.5581 37.6767 88.5078 39.7269 88.5078 42.247V48.166C77.0567 53.0416 69.0078 64.4071 69.0078 77.6177C69.0078 83.1437 70.4401 88.5911 73.15 93.3708C75.7766 98.0036 79.5544 101.945 84.0752 104.769C84.3171 104.92 84.5968 105 84.8822 105H117.118C117.403 105 117.683 104.92 117.925 104.769C122.445 101.945 126.223 98.0036 128.85 93.3708C131.56 88.5911 132.992 83.1437 132.992 77.6177C132.992 64.4071 124.943 53.0416 113.492 48.166ZM73.0704 46.0937C68.6461 46.0937 65.0469 42.4944 65.0469 38.0704C65.0469 33.6461 68.6461 30.0469 73.0704 30.0469C77.4946 30.0469 81.0939 33.6461 81.0939 38.0704C81.0937 42.4944 77.4944 46.0937 73.0704 46.0937ZM97.8008 30.0469H104.199V32.5439C103.744 32.8075 103.438 33.2983 103.438 33.8619C103.438 34.4254 103.744 34.9162 104.199 35.1798V37.6767H97.8008V30.0469ZM91.5547 42.247C91.5547 41.407 92.2381 40.7236 93.0781 40.7236H96.2773H105.723H108.922C109.762 40.7236 110.445 41.407 110.445 42.247V47.049C107.459 46.1243 104.287 45.6255 101 45.6255C97.7135 45.6255 94.5414 46.1243 91.5547 47.049V42.247ZM116.675 101.953H85.3249C77.0065 96.5888 72.0547 87.5245 72.0547 77.6177C72.0547 61.6571 85.0394 48.6724 101 48.6724C116.961 48.6724 129.945 61.6571 129.945 77.6177C129.945 87.5245 124.994 96.5888 116.675 101.953Z" fill="#DB2A4A"/>
<path d="M108.231 53.3817C107.424 53.1404 106.576 53.5991 106.335 54.4051C106.094 55.2112 106.552 56.0601 107.358 56.3009C116.264 58.9625 122.612 67.0387 123.198 76.2282C119.321 79.7914 113.979 81.079 108.97 79.7451L109.717 78.9981C112.33 76.3848 112.33 72.1328 109.717 69.5193C107.438 67.2409 103.914 66.9493 101.317 68.6433C100.237 67.9357 98.9741 67.5562 97.6532 67.5562C95.863 67.5562 94.1797 68.2533 92.9137 69.5193C92.5681 69.865 92.2695 70.2399 92.0154 70.6354C87.4998 69.9096 82.9543 70.8849 79.1845 73.3249C80.7759 65.367 86.6957 58.6685 94.6595 56.2957C95.4658 56.0555 95.9247 55.2071 95.6844 54.4007C95.4442 53.5944 94.5959 53.136 93.7894 53.3756C88.6775 54.8987 84.077 58.0934 80.8352 62.3714C77.4827 66.7948 75.7109 72.0668 75.7109 77.6176C75.7109 81.5994 76.653 85.5607 78.4351 89.0728C80.211 92.5729 82.8373 95.6603 86.0301 98.0017C86.2914 98.1935 86.607 98.2968 86.9311 98.2968H115.069C115.393 98.2968 115.709 98.1935 115.97 98.0017C119.163 95.6603 121.789 92.5727 123.565 89.0728C125.347 85.5605 126.289 81.5993 126.289 77.6176C126.289 72.0706 124.519 66.8014 121.171 62.3796C117.933 58.1034 113.338 54.9079 108.231 53.3817ZM97.653 70.6033C98.6295 70.6033 99.5476 70.9835 100.238 71.6739C100.523 71.9596 100.911 72.1201 101.315 72.1201C101.719 72.1201 102.107 71.9596 102.392 71.6739C103.083 70.9835 104.001 70.6033 104.977 70.6033C105.953 70.6033 106.871 70.9835 107.562 71.6739C108.252 72.3643 108.633 73.2824 108.633 74.2587C108.633 75.2353 108.252 76.1533 107.562 76.8437L101.315 83.0907L95.0679 76.8437C93.6426 75.4185 93.6426 73.0992 95.0679 71.6739C95.7586 70.9835 96.6766 70.6033 97.653 70.6033ZM114.561 95.2499H87.4385C81.915 91.0153 78.7578 84.617 78.7578 77.6176C78.7578 77.5779 78.7589 77.5384 78.759 77.4986C82.0813 74.4307 86.5307 73.0104 90.9903 73.5657C90.7904 75.5051 91.4308 77.5154 92.9136 78.9981L99.1687 85.2532C99.7605 85.8449 100.538 86.1408 101.315 86.1408C102.092 86.1408 102.87 85.8449 103.462 85.2532L106.545 82.1703C108.575 82.9175 110.708 83.2959 112.858 83.2959C113.972 83.2959 115.091 83.1945 116.202 82.9902C118.691 82.5322 121.028 81.5741 123.099 80.1776C122.427 86.1627 119.404 91.5377 114.561 95.2499Z" fill="#DB2A4A"/>
<path d="M101.01 55.3848C101.412 55.3848 101.803 55.2233 102.087 54.9384C102.372 54.6552 102.533 54.2635 102.533 53.8613C102.533 53.4607 102.372 53.0676 102.087 52.7844C101.803 52.5011 101.412 52.3379 101.01 52.3379C100.609 52.3379 100.216 52.5009 99.9327 52.7844C99.6493 53.0676 99.4863 53.4607 99.4863 53.8613C99.4863 54.2637 99.6493 54.6552 99.9327 54.9384C100.216 55.2234 100.609 55.3848 101.01 55.3848Z" fill="#DB2A4A"/>
</svg>
