<svg width="35" height="30" viewBox="0 0 35 30" fill="none" xmlns="http://www.w3.org/2000/svg">
<path d="M0.28857 15.6954C0.682388 16.0923 1.33146 16.1027 1.73854 15.7186L2.12361 15.3551C2.21528 19.2288 3.80504 22.8573 6.62411 25.6066C9.52917 28.4397 13.3916 30 17.5 30C20.4209 30 23.2632 29.1979 25.7197 27.6805C28.1093 26.2044 30.0351 24.12 31.289 21.6526C31.5405 21.1577 31.333 20.5578 30.8256 20.3125C30.318 20.0673 29.703 20.2697 29.4515 20.7645C27.1835 25.2275 22.604 28 17.5 28C10.2945 28 4.40688 22.3955 4.17774 15.4217L4.47031 15.7071C4.87069 16.0976 5.51997 16.0976 5.92042 15.7071C6.12057 15.5119 6.22072 15.2561 6.22079 15.0002C6.22086 21.0655 11.2807 26 17.5 26C23.7193 26 28.7791 21.0655 28.7793 15.0003C28.7793 15.2561 28.8794 15.5119 29.0796 15.7071L31.1302 17.707C31.5317 18.0987 32.1742 18.0908 32.5686 17.7187L34.6877 15.7187C35.0947 15.3346 35.1052 14.7015 34.7115 14.3047C34.5103 14.1019 34.2426 14 33.9744 14C33.7177 14 33.4606 14.0935 33.2615 14.2814L32.8764 14.6449C32.7847 10.7712 31.1949 7.14267 28.3758 4.3934C25.4708 1.56026 21.6083 -1.90735e-06 17.5 -1.90735e-06C14.5791 -1.90735e-06 11.7368 0.802065 9.28034 2.31947C6.89071 3.7956 4.96489 5.88 3.71098 8.3474C3.45948 8.84227 3.66702 9.4422 4.17439 9.68747C4.68216 9.9328 5.29705 9.7304 5.54854 9.23553C7.8165 4.77246 12.396 2 17.5 2C24.7055 2 30.5931 7.60447 30.8223 14.5783L30.5297 14.2929C30.1293 13.9024 29.48 13.9024 29.0796 14.2929C28.8794 14.4881 28.7793 14.7439 28.7792 14.9998C28.7791 8.9344 23.7193 4 17.5 4C11.2807 4 6.22086 8.93447 6.22072 14.9997C6.22065 14.7439 6.12057 14.4881 5.92035 14.2929L3.86971 12.293C3.47193 11.9048 2.82709 11.9069 2.43136 12.2813L0.312222 14.2813C-0.0946541 14.6655 -0.105247 15.2985 0.28857 15.6954ZM8.32878 16H12.3929C12.4876 18.4211 12.9245 20.6792 13.6477 22.4425C13.7814 22.7685 13.9241 23.073 14.0743 23.3567C10.9806 22.1462 8.70996 19.3471 8.32878 16ZM17.5 6C18.1103 6 18.875 6.90293 19.4482 8.30033C20.0794 9.83933 20.4641 11.8349 20.5548 14H14.4451C14.5359 11.8349 14.9206 9.83933 15.5518 8.30033C16.125 6.90293 16.8897 6 17.5 6ZM20.5548 16C20.4641 18.1651 20.0793 20.1607 19.4482 21.6997C18.875 23.0971 18.1103 24 17.5 24C16.8897 24 16.125 23.0971 15.5518 21.6997C14.9206 20.1607 14.5359 18.1651 14.4452 16H20.5548ZM20.9256 23.3567C21.0759 23.0729 21.2185 22.7685 21.3522 22.4424C22.0755 20.6791 22.5124 18.421 22.6071 15.9999H26.6711C26.29 19.3471 24.0194 22.1462 20.9256 23.3567ZM26.6712 14H22.6071C22.5124 11.5789 22.0755 9.3208 21.3523 7.55753C21.2186 7.23147 21.0759 6.927 20.9257 6.64326C24.0194 7.8538 26.29 10.6528 26.6712 14ZM14.0744 6.64326C13.9241 6.927 13.7815 7.23147 13.6477 7.55753C12.9245 9.3208 12.4876 11.5789 12.3929 14H8.32885C8.70995 10.6528 10.9806 7.8538 14.0744 6.64326Z" fill="#DB2A4A"/>
</svg>
