<svg width="100" height="100" viewBox="0 0 100 100" fill="none" xmlns="http://www.w3.org/2000/svg">
<g clip-path="url(#clip0)">
<path d="M24.7239 76.0029H15.1688C14.3618 76.0029 13.708 76.6568 13.708 77.4637C13.708 78.2706 14.3618 78.9244 15.1688 78.9244H24.7241C25.531 78.9244 26.1848 78.2706 26.1848 77.4637C26.1848 76.6568 25.5308 76.0029 24.7239 76.0029Z" fill="#DB2A4A"/>
<path d="M24.7239 71.0952H15.1688C14.3618 71.0952 13.708 71.749 13.708 72.556C13.708 73.3629 14.3618 74.0167 15.1688 74.0167H24.7241C25.531 74.0167 26.1848 73.3629 26.1848 72.556C26.1848 71.749 25.5308 71.0952 24.7239 71.0952Z" fill="#DB2A4A"/>
<path d="M24.7239 66.187H15.1688C14.3618 66.187 13.708 66.8408 13.708 67.6478C13.708 68.4547 14.3618 69.1085 15.1688 69.1085H24.7241C25.531 69.1085 26.1848 68.4547 26.1848 67.6478C26.1848 66.8408 25.5308 66.187 24.7239 66.187Z" fill="#DB2A4A"/>
<path d="M65.7348 76.0029H56.1795C55.3726 76.0029 54.7188 76.6568 54.7188 77.4637C54.7188 78.2706 55.3726 78.9244 56.1795 78.9244H65.7348C66.5417 78.9244 67.1956 78.2706 67.1956 77.4637C67.1956 76.6568 66.5415 76.0029 65.7348 76.0029Z" fill="#DB2A4A"/>
<path d="M65.7348 71.0952H56.1795C55.3726 71.0952 54.7188 71.749 54.7188 72.556C54.7188 73.3629 55.3726 74.0167 56.1795 74.0167H65.7348C66.5417 74.0167 67.1956 73.3629 67.1956 72.556C67.1956 71.749 66.5415 71.0952 65.7348 71.0952Z" fill="#DB2A4A"/>
<path d="M65.7348 66.187H56.1795C55.3726 66.187 54.7188 66.8408 54.7188 67.6478C54.7188 68.4547 55.3726 69.1085 56.1795 69.1085H65.7348C66.5417 69.1085 67.1956 68.4547 67.1956 67.6478C67.1956 66.8408 66.5415 66.187 65.7348 66.187Z" fill="#DB2A4A"/>
<path d="M45.2289 34.9917H35.6736C34.8667 34.9917 34.2129 35.6457 34.2129 36.4525C34.2129 37.2592 34.8667 37.9132 35.6736 37.9132H45.2289C46.0359 37.9132 46.6897 37.2594 46.6897 36.4525C46.6897 35.6455 46.0357 34.9917 45.2289 34.9917Z" fill="#DB2A4A"/>
<path d="M45.2289 30.084H35.6736C34.8667 30.084 34.2129 30.738 34.2129 31.5447C34.2129 32.3515 34.8667 33.0055 35.6736 33.0055H45.2289C46.0359 33.0055 46.6897 32.3515 46.6897 31.5447C46.6897 30.738 46.0357 30.084 45.2289 30.084Z" fill="#DB2A4A"/>
<path d="M45.2289 25.1758H35.6736C34.8667 25.1758 34.2129 25.8298 34.2129 26.6365C34.2129 27.4433 34.8667 28.0973 35.6736 28.0973H45.2289C46.0359 28.0973 46.6897 27.4433 46.6897 26.6365C46.6897 25.8298 46.0357 25.1758 45.2289 25.1758Z" fill="#DB2A4A"/>
<path d="M97.0483 82.1616H92.3299C92.4195 81.8315 92.4717 81.486 92.4717 81.1278V45.1056C92.4717 42.925 90.6975 41.1507 88.5165 41.1507C86.6355 41.1507 73.7487 41.1505 71.8246 41.1505C71.9142 40.8203 71.9664 40.475 71.9664 40.1168V25.5141C71.9664 24.7074 71.3125 24.0534 70.5056 24.0534C69.6987 24.0534 69.0448 24.7074 69.0448 25.5141V40.1168C69.0448 40.6867 68.5811 41.1505 68.0112 41.1505C67.4043 41.1505 32.5959 41.1505 31.9888 41.1505C31.4189 41.1505 30.9552 40.6867 30.9552 40.1168V4.09459C30.9552 3.52471 31.4189 3.06116 31.9888 3.06116H41.8499V17.1462C41.8499 19.2457 44.1855 20.4837 45.9213 19.3476L49.9999 16.6785L54.0783 19.3476C55.8256 20.4907 58.1497 19.2348 58.1497 17.1462V3.06116H68.011C68.5809 3.06116 69.0446 3.52471 69.0446 4.09459V28.6975C69.0446 29.5042 69.6985 30.1582 70.5054 30.1582C71.3123 30.1582 71.9662 29.5042 71.9662 28.6975V4.09459C71.9662 1.91378 70.192 0.139648 68.011 0.139648C66.6371 0.139648 33.364 0.139648 31.9886 0.139648C29.8078 0.139648 28.0335 1.91378 28.0335 4.09459V40.117C28.0335 40.475 28.0855 40.8205 28.1752 41.1507C27.6706 41.1507 21.572 41.1508 11.4831 41.1508C9.30229 41.1508 7.52795 42.925 7.52795 45.1058V81.128C7.52795 81.4862 7.58015 81.8315 7.66974 82.1618H2.9515C1.32403 82.1616 0 83.4857 0 85.1133V89.2307C0 90.8582 1.32403 92.1822 2.9515 92.1822H5.37207V96.8C5.37207 98.4874 6.74499 99.8604 8.43245 99.8604H12.9113C14.5988 99.8604 15.9717 98.4874 15.9717 96.8V92.1822H44.7003V96.8C44.7003 98.4874 46.0732 99.8604 47.7607 99.8604H52.2395C53.9268 99.8604 55.2997 98.4874 55.2997 96.8V92.1822H76.2556C77.0625 92.1822 77.7163 91.5284 77.7163 90.7215C77.7163 89.9146 77.0625 89.2607 76.2556 89.2607C73.4835 89.2607 5.46634 89.2607 2.9517 89.2607C2.93514 89.2607 2.92171 89.2473 2.92171 89.2307V85.1133C2.92171 85.0968 2.93514 85.0834 2.9517 85.0834H97.0485C97.0651 85.0834 97.0785 85.0968 97.0785 85.1133V89.2307C97.0785 89.2473 97.0651 89.2607 97.0485 89.2607C96.1631 89.2607 74.2551 89.2607 73.0724 89.2607C72.2655 89.2607 71.6117 89.9146 71.6117 90.7215C71.6117 91.5284 72.2655 92.1822 73.0724 92.1822H84.0283V96.8C84.0283 98.4874 85.4012 99.8604 87.0887 99.8604H91.5676C93.255 99.8604 94.6279 98.4874 94.6279 96.8V92.1822H97.0485C98.676 92.1822 100 90.8582 100 89.2307V85.1133C100 83.4857 98.676 82.1616 97.0483 82.1616ZM44.7714 3.06116H55.2284V16.6088L51.4406 14.13C50.5653 13.5574 49.4339 13.5574 48.5594 14.13L44.7714 16.6088V3.06116ZM47.6218 92.182H52.3782V96.7998C52.3782 96.8765 52.3161 96.9386 52.2395 96.9386H47.7607C47.6839 96.9386 47.6218 96.8765 47.6218 96.7998V92.182ZM8.29358 92.182H13.0502V96.7998C13.0502 96.8765 12.9881 96.9386 12.9113 96.9386H8.43245C8.35571 96.9386 8.29358 96.8765 8.29358 96.7998V92.182ZM65.2769 44.0724H75.7339V57.62L71.9461 55.1412C71.071 54.5686 69.9402 54.5682 69.0649 55.1412L65.2769 57.62V44.0724ZM24.2661 44.0724H34.7229V57.62L30.9349 55.141C30.0598 54.5686 28.929 54.5686 28.0539 55.1412L24.2661 57.62V44.0724ZM48.5393 81.128C48.5393 81.6884 48.0661 82.1618 47.5057 82.1618H11.4833C10.9229 82.1618 10.4497 81.6884 10.4497 81.128V45.1058C10.4497 44.5359 10.9134 44.0724 11.4833 44.0724H21.3446V58.1573C21.3446 60.2451 23.6679 61.5023 25.4162 60.3588L29.4944 57.6899L33.573 60.359C35.3168 61.5003 37.6442 60.2511 37.6442 58.1573V44.0724H47.5055C48.0754 44.0724 48.5392 44.5359 48.5392 45.1058L48.5393 81.128ZM89.5501 81.128C89.5501 81.6981 89.0864 82.1618 88.5165 82.1618H52.4943C51.9244 82.1618 51.4607 81.6981 51.4607 81.128V45.1058C51.4607 44.5359 51.9244 44.0724 52.4943 44.0724H62.3554V58.1573C62.3554 60.2456 64.6793 61.5021 66.4268 60.3588L70.5052 57.6899L74.5838 60.3588C76.3288 61.5007 78.6553 60.2501 78.6553 58.1573V44.0724H88.5163C89.0862 44.0724 89.5499 44.5359 89.5499 45.1058L89.5501 81.128ZM91.7064 96.7998C91.7064 96.8765 91.6443 96.9386 91.5676 96.9386H87.0887C87.0119 96.9386 86.9498 96.8765 86.9498 96.7998V92.182H91.7064V96.7998Z" fill="#DB2A4A"/>
</g>
<defs>
<clipPath id="clip0">
<rect width="100" height="100" fill="white"/>
</clipPath>
</defs>
</svg>
