<svg width="100" height="104" viewBox="0 0 100 104" fill="none" xmlns="http://www.w3.org/2000/svg">
<g clip-path="url(#clip0)">
<path d="M45.6431 78.4274C43.4796 78.5303 41.7283 80.319 41.7284 82.3982C41.7285 83.5408 42.1593 84.5711 42.9554 85.3297C43.6953 86.0321 44.6693 86.4068 45.6996 86.3693C46.7297 86.4069 47.6944 86.0416 48.4436 85.3298C48.4624 85.3111 48.4905 85.283 48.5092 85.2642C49.2585 84.515 49.6704 83.5035 49.6892 82.3984C49.6798 80.3098 47.9377 78.5303 45.7743 78.4273C45.7275 78.4181 45.6805 78.4274 45.6431 78.4274ZM47.0294 82.4172C47.02 82.8199 46.8703 83.1758 46.6174 83.4288C46.4488 83.5786 46.1772 83.7565 45.7652 83.7378C45.7184 83.7284 45.6716 83.7378 45.6341 83.7378C45.2314 83.7659 44.941 83.5879 44.7818 83.4287C44.5103 83.1758 44.3697 82.8105 44.3697 82.4172C44.3791 82.0895 44.5289 81.7711 44.763 81.537C45.0065 81.2935 45.3436 81.1249 45.7089 81.0967C46.4299 81.1622 47.0293 81.7616 47.0294 82.4172Z" fill="#DB2A4A"/>
<path d="M56.1213 22.9733L35.2734 22.9723C34.5429 22.9722 33.9528 23.5623 33.9529 24.2928L33.9554 91.1073C33.9555 91.8378 34.5456 92.4279 35.276 92.4279L56.1239 92.4286C56.4798 92.4286 56.8075 92.2882 57.0605 92.0352C57.3134 91.7823 57.4444 91.4453 57.4539 91.0987L57.4513 24.2843C57.4418 23.5633 56.8518 22.9733 56.1213 22.9733ZM54.7917 31.627L45.6789 31.6922C44.9484 31.6921 44.3583 32.3009 44.3678 33.0221C44.3679 33.7526 44.9767 34.3427 45.6977 34.3333L54.7917 34.268L54.7918 38.314L50.4836 38.3138C49.753 38.3137 49.163 38.9038 49.1631 39.6343C49.1632 40.3648 49.7532 40.9549 50.4837 40.9549L54.7919 40.9551L54.792 44.9448L45.698 44.9539C44.9675 44.9538 44.3774 45.5439 44.3775 46.2744C44.3776 47.005 44.9677 47.595 45.6981 47.595L54.7921 47.5859L54.7922 51.5757L50.484 51.5755C49.7534 51.5754 49.1634 52.1655 49.1635 52.896C49.1635 53.6265 49.7536 54.2166 50.484 54.2166L54.7923 54.2168L54.7924 58.2815L45.7077 58.2062C44.9771 58.2061 44.3777 58.7868 44.3778 59.5173C44.3779 60.2478 44.9586 60.8473 45.689 60.8473L54.8019 60.9132L54.8019 64.9029L50.4188 64.9028C49.6882 64.9027 49.0982 65.4927 49.0983 66.2233C49.0984 66.9538 49.6884 67.5438 50.4189 67.5438L54.802 67.544L54.8021 71.5338L46.6259 71.599C45.8954 71.5989 45.3054 72.2077 45.3148 72.9288C45.3149 73.6594 45.9237 74.2494 46.6448 74.2401L54.8022 74.1749L54.8029 89.7218L36.6149 89.7211L36.6123 25.5478L54.8004 25.5485L54.7917 31.627Z" fill="#DB2A4A"/>
</g>
<path d="M97.47 29.8228L92.0688 25.5018V1.54375C92.0688 1.13432 91.9061 0.741663 91.6166 0.452154C91.3271 0.162645 90.9344 0 90.525 0H81.2625C80.8531 0 80.4604 0.162645 80.1709 0.452154C79.8814 0.741663 79.7188 1.13432 79.7188 1.54375V25.5018L74.3174 29.8229C73.5926 30.4 73.0077 31.1334 72.6064 31.9684C72.2052 32.8034 71.9978 33.7183 72 34.6447V87.1279C72.0033 88.1953 72.3738 89.2291 73.0493 90.0556C73.7248 90.8821 74.6641 91.451 75.7095 91.6667C79.064 92.3233 82.4756 92.6443 85.8938 92.625C89.312 92.6443 92.7236 92.3233 96.0783 91.6667C97.1236 91.451 98.0629 90.882 98.7383 90.0555C99.4137 89.229 99.7842 88.1953 99.7875 87.1279V34.6447C99.7897 33.7182 99.5824 32.8033 99.181 31.9683C98.7797 31.1333 98.1948 30.3998 97.47 29.8228ZM88.9813 20.0688H82.8063V9.2625H88.9813V20.0688ZM88.9813 3.0875V6.175H82.8063V3.0875H88.9813ZM76.2453 32.2337L82.2274 27.4492C82.4081 27.3046 82.5539 27.1211 82.6541 26.9124C82.7543 26.7038 82.8063 26.4752 82.8063 26.2438V23.1563H88.9813V26.2438C88.9812 26.4752 89.0332 26.7038 89.1334 26.9124C89.2336 27.1211 89.3795 27.3046 89.5602 27.4492L95.5422 32.2335C95.9046 32.5223 96.1969 32.8892 96.3974 33.3069C96.5979 33.7246 96.7014 34.1823 96.7 34.6456V38.5938H75.0875V34.6447C75.0863 34.1815 75.1898 33.7241 75.3903 33.3066C75.5908 32.8891 75.8831 32.5223 76.2453 32.2337V32.2337ZM96.7 41.6813V75.6438H75.0875V41.6813H96.7ZM95.4615 88.6414C92.3099 89.2569 89.1049 89.5571 85.8938 89.5375C82.6827 89.5571 79.4777 89.2569 76.3262 88.6414C75.9774 88.5697 75.6638 88.3801 75.4383 88.1045C75.2127 87.8289 75.0889 87.4841 75.0875 87.1279V78.7313H96.7V87.1279C96.6987 87.484 96.5749 87.8288 96.3493 88.1044C96.1238 88.38 95.8103 88.5696 95.4615 88.6414V88.6414Z" fill="#DB2A4A"/>
<path d="M85.8936 60.2061C87.4202 60.2061 88.9125 59.7534 90.1819 58.9052C91.4512 58.0571 92.4405 56.8516 93.0248 55.4411C93.609 54.0307 93.7618 52.4787 93.464 50.9815C93.1662 49.4842 92.431 48.1088 91.3515 47.0293C90.2721 45.9498 88.8967 45.2147 87.3994 44.9169C85.9021 44.619 84.3501 44.7719 82.9397 45.3561C81.5293 45.9403 80.3238 46.9297 79.4756 48.199C78.6275 49.4683 78.1748 50.9607 78.1748 52.4873C78.1771 54.5337 78.9911 56.4957 80.4381 57.9428C81.8852 59.3898 83.8471 60.2038 85.8936 60.2061V60.2061ZM85.8936 47.8561C86.8095 47.8561 87.7049 48.1277 88.4665 48.6366C89.2282 49.1455 89.8218 49.8688 90.1723 50.715C90.5228 51.5613 90.6145 52.4924 90.4358 53.3908C90.2571 54.2892 89.816 55.1144 89.1683 55.7621C88.5207 56.4098 87.6954 56.8509 86.7971 57.0296C85.8987 57.2083 84.9675 57.1166 84.1213 56.766C83.275 56.4155 82.5517 55.8219 82.0428 55.0603C81.5339 54.2987 81.2623 53.4033 81.2623 52.4873C81.2637 51.2595 81.7521 50.0823 82.6204 49.2141C83.4886 48.3459 84.6657 47.8575 85.8936 47.8561V47.8561Z" fill="#DB2A4A"/>
<defs>
<clipPath id="clip0">
<rect width="64.6282" height="64.6282" fill="white" transform="translate(0 57.6992) rotate(-45)"/>
</clipPath>
</defs>
</svg>
