<svg width="48" height="48" viewBox="0 0 48 48" fill="none" xmlns="http://www.w3.org/2000/svg">
<circle cx="24" cy="24" r="24" fill="white"/>
<path d="M33.2 26.56V32C33.2 32.56 32.76 33 32.2 33H17C16.44 33 16 32.56 16 32V26.56C16 26 16.44 25.56 17 25.56C17.56 25.56 18 26 18 26.56V31H31.2V26.56C31.2 26 31.64 25.56 32.2 25.56C32.76 25.56 33.2 26 33.2 26.56ZM23.88 27.8C24.06 28 24.32 28.1 24.6 28.1C24.88 28.1 25.12 28 25.32 27.8L29.3 23.72C29.68 23.32 29.68 22.7 29.28 22.3C28.88 21.92 28.26 21.92 27.86 22.32L25.58 24.64V16C25.58 15.44 25.14 15 24.58 15C24.02 15 23.58 15.44 23.58 16V24.66L21.3 22.34C20.92 21.94 20.28 21.94 19.88 22.32C19.48 22.7 19.48 23.34 19.86 23.74L23.88 27.8Z" fill="#DB2A4A"/>
</svg>
