<svg width="29" height="29" viewBox="0 0 29 29" fill="none" xmlns="http://www.w3.org/2000/svg">
<path d="M14.5 3.39844C11.2207 3.39844 8.55273 6.06638 8.55273 9.3457C8.55273 11.3815 9.5794 13.2548 11.2991 14.3565C13.0551 15.4816 15.2107 15.6012 17.2138 14.6796C17.64 14.4835 17.8267 13.9789 17.6305 13.5526C17.4344 13.1264 16.9299 12.9398 16.5036 13.1359C15.0389 13.8098 13.4759 13.7331 12.2157 12.9258C10.9861 12.138 10.252 10.7996 10.252 9.3457C10.252 7.00333 12.1576 5.09766 14.5 5.09766C16.8424 5.09766 18.748 7.00333 18.748 9.3457C18.748 9.81418 18.3669 10.1953 17.8984 10.1953C17.4703 10.1953 17.0705 9.87065 17.0489 9.35862C17.0489 9.35431 17.0488 9.35001 17.0488 9.3457C17.0488 7.94028 15.9054 6.79688 14.5 6.79688C13.0946 6.79688 11.9512 7.94028 11.9512 9.3457C11.9512 10.7511 13.0946 11.8945 14.5 11.8945C15.1523 11.8945 15.7478 11.648 16.1992 11.2435C16.6504 11.648 17.2461 11.8945 17.8984 11.8945C19.3039 11.8945 20.4473 10.7511 20.4473 9.3457C20.4473 6.06638 17.7793 3.39844 14.5 3.39844ZM15.3377 9.48198C15.2721 9.88577 14.922 10.1953 14.5 10.1953C14.0315 10.1953 13.6504 9.81418 13.6504 9.3457C13.6504 8.87723 14.0315 8.49609 14.5 8.49609C14.9356 8.49609 15.2952 8.82574 15.3437 9.24856C15.331 9.32577 15.3289 9.40433 15.3377 9.48198Z" fill="#DB2A4A"/>
<path d="M27.2441 11.1568C27.2439 10.9371 27.1554 10.7175 26.9953 10.5574L23.8457 7.40786V0.849609C23.8457 0.380398 23.4653 0 22.9961 0H6.00391C5.5347 0 5.1543 0.380398 5.1543 0.849609V7.40786L2.00474 10.5574C2.00179 10.5604 1.9993 10.5636 1.99641 10.5666C1.8372 10.7307 1.75626 10.9467 1.75592 11.1568C1.75592 11.1574 1.75586 11.1579 1.75586 11.1585V26.4512C1.75586 27.8584 2.90091 29 4.30469 29H24.6953C26.1022 29 27.2441 27.8555 27.2441 26.4512V11.1585C27.2441 11.1579 27.2441 11.1574 27.2441 11.1568ZM23.8457 9.81089L25.193 11.1582L23.8457 12.5055V9.81089ZM6.85352 7.76005C6.85352 7.75988 6.85352 7.75965 6.85352 7.75948V1.69922H22.1465V7.75948C22.1465 7.75965 22.1465 7.75988 22.1465 7.76005V14.2047L17.5465 18.8047H11.4535L6.85352 14.2047V7.76005ZM5.1543 9.81089V12.5055L3.80699 11.1582L5.1543 9.81089ZM3.45508 26.0993V13.2093L9.90005 19.6543L3.45508 26.0993ZM4.65665 27.3008L11.4535 20.5039H17.5465L24.3433 27.3008H4.65665ZM25.5449 26.0993L19.1 19.6543L25.5449 13.2093V26.0993Z" fill="#DB2A4A"/>
</svg>
