<svg width="30" height="30" viewBox="0 0 30 30" fill="none" xmlns="http://www.w3.org/2000/svg">
<g clip-path="url(#clip0)">
<path d="M17.6527 30.0005C14.7005 30.0005 11.7672 28.8627 9.56015 26.6556L3.34491 20.4404C-0.515072 16.5805 -1.10456 10.499 1.94332 5.97999C2.36481 5.35494 3.04501 4.95431 3.80935 4.88071C4.6078 4.80365 5.39113 5.08422 5.95718 5.65027L9.56003 9.25318C10.5882 10.2813 10.5882 11.9542 9.56003 12.9823L8.31701 14.2253C7.97345 14.569 7.97345 15.1248 8.31701 15.4684L14.5322 21.6836C14.8749 22.0263 15.4325 22.0263 15.7752 21.6836L17.0183 20.4405C18.0463 19.4125 19.7192 19.4124 20.7474 20.4405L24.3502 24.0434C24.9162 24.6094 25.1968 25.3922 25.1198 26.1911C25.0462 26.9555 24.6456 27.6356 24.0206 28.0571C22.0855 29.3623 19.8638 30.0005 17.6527 30.0005ZM3.97788 6.63048C3.83695 6.64402 3.57449 6.70531 3.40069 6.9629C0.822353 10.7858 1.32172 15.9311 4.58793 19.1974L10.8031 25.4126C14.0694 28.6788 19.2148 29.1781 23.0376 26.5996C23.2952 26.4259 23.3564 26.1635 23.3701 26.0225C23.3964 25.748 23.3006 25.4797 23.1073 25.2863L19.5044 21.6834C19.1617 21.3407 18.6041 21.3407 18.2614 21.6834L17.0183 22.9264C15.9902 23.9545 14.3173 23.9546 13.2892 22.9264L7.07398 16.7113C6.04349 15.681 6.04325 14.0128 7.07398 12.9822L8.31701 11.7392C8.65974 11.3964 8.65974 10.8388 8.31701 10.4961L4.71415 6.89329C4.52119 6.70033 4.25305 6.604 3.97788 6.63048Z" fill="#DB2A4A"/>
<path d="M16.4792 15.7544C16.1508 15.6183 15.9366 15.2978 15.9366 14.9424V12.1549C14.9135 11.7921 14.1787 10.8145 14.1787 9.66861V2.63688C14.1787 1.1829 15.3616 0 16.8156 0H27.3631C28.8171 0 30 1.1829 30 2.63688V9.66855C30 11.1225 28.8171 12.3054 27.3631 12.3054H20.6955L17.4371 15.5638C17.1858 15.8152 16.8077 15.8904 16.4792 15.7544ZM16.8156 1.75792C16.331 1.75792 15.9367 2.15222 15.9367 2.63688V9.66855C15.9367 10.1532 16.331 10.5475 16.8156 10.5475C17.3011 10.5475 17.6946 10.9411 17.6946 11.4265V12.8203L19.71 10.805C19.8748 10.6402 20.0984 10.5475 20.3315 10.5475H27.3632C27.8478 10.5475 28.2421 10.1532 28.2421 9.66855V2.63688C28.2421 2.15222 27.8478 1.75792 27.3632 1.75792H16.8156Z" fill="#DB2A4A"/>
<path d="M18.5743 7.03136C19.0597 7.03136 19.4532 6.63783 19.4532 6.1524C19.4532 5.66696 19.0597 5.27344 18.5743 5.27344C18.0888 5.27344 17.6953 5.66696 17.6953 6.1524C17.6953 6.63783 18.0888 7.03136 18.5743 7.03136Z" fill="#DB2A4A"/>
<path d="M22.0899 7.03136C22.5753 7.03136 22.9689 6.63783 22.9689 6.1524C22.9689 5.66696 22.5753 5.27344 22.0899 5.27344C21.6045 5.27344 21.2109 5.66696 21.2109 6.1524C21.2109 6.63783 21.6045 7.03136 22.0899 7.03136Z" fill="#DB2A4A"/>
<path d="M25.6055 7.03136C26.091 7.03136 26.4845 6.63783 26.4845 6.1524C26.4845 5.66696 26.091 5.27344 25.6055 5.27344C25.1201 5.27344 24.7266 5.66696 24.7266 6.1524C24.7266 6.63783 25.1201 7.03136 25.6055 7.03136Z" fill="#DB2A4A"/>
</g>
<defs>
<clipPath id="clip0">
<rect width="30" height="30" fill="white"/>
</clipPath>
</defs>
</svg>
